<svg xmlns="http://www.w3.org/2000/svg" version="1.1" xmlns:xlink="http://www.w3.org/1999/xlink" xmlns:svgjs="http://svgjs.dev/svgjs" width="300" height="300" viewBox="0 0 128 128"><g transform="matrix(0.8046875,0,0,0.8046875,12.612792253521128,12.612792253521128)"><svg viewBox="0 0 142 142" data-background-color="#e9efe7" preserveAspectRatio="xMidYMid meet" height="128" width="128" xmlns="http://www.w3.org/2000/svg" xmlns:xlink="http://www.w3.org/1999/xlink"><g id="tight-bounds" transform="matrix(1,0,0,1,-0.15550000000000352,-0.15550000000000352)"><svg viewBox="0 0 142.31066447748242 142.31066447748242" height="142.31066447748242" width="142.31066447748242"><g><svg></svg></g><g><svg viewBox="0 0 142.31066447748242 142.31066447748242" height="142.31066447748242" width="142.31066447748242"><g><path d="M0 71.155c0-39.298 31.857-71.155 71.155-71.155 39.298 0 71.155 31.857 71.156 71.155 0 39.298-31.857 71.155-71.156 71.156-39.298 0-71.155-31.857-71.155-71.156zM71.155 134.886c35.197 0 63.731-28.533 63.731-63.731 0-35.197-28.533-63.731-63.731-63.73-35.197 0-63.731 28.533-63.73 63.73 0 35.197 28.533 63.731 63.73 63.731z" data-fill-palette-color="tertiary" fill="#2a2c35" stroke="transparent"></path><ellipse rx="68.30911894919156" ry="68.30911894919156" cx="71.15533223874121" cy="71.15533223874121" fill="#2a2c35" stroke="transparent" stroke-width="0" fill-opacity="1" data-fill-palette-color="tertiary"></ellipse></g><g transform="matrix(1,0,0,1,45.496168251590035,29.989108276746492)"><svg viewBox="0 0 51.318327974302356 82.33244792398943" height="82.33244792398943" width="51.318327974302356"><g><svg viewBox="0 0 51.318327974302356 82.33244792398943" height="82.33244792398943" width="51.318327974302356"><g><svg viewBox="0 0 51.318327974302356 82.33244792398943" height="82.33244792398943" width="51.318327974302356"><g id="textblocktransform"><svg viewBox="0 0 51.318327974302356 82.33244792398943" height="82.33244792398943" width="51.318327974302356" id="textblock"><g><svg viewBox="0 0 51.318327974302356 82.33244792398943" height="82.33244792398943" width="51.318327974302356"><g transform="matrix(1,0,0,1,0,0)"><svg width="51.318327974302356" viewBox="1.29 -35.55 22.46 36.04" height="82.33244792398943" data-palette-color="#e9efe7"><path d="M19.02-10.4L19.02-35.55 23.75-35.55 23.75-10.4Q23.75-6.88 22.31-4.46 20.87-2.03 18.33-0.77 15.8 0.49 12.52 0.49L12.52 0.49Q9.25 0.49 6.71-0.63 4.17-1.76 2.73-4.05 1.29-6.35 1.29-9.84L1.29-9.84 6.03-9.84Q6.03-6.47 7.85-4.9 9.67-3.32 12.52-3.32L12.52-3.32Q14.38-3.32 15.84-4.13 17.31-4.93 18.16-6.51 19.02-8.08 19.02-10.4L19.02-10.4Z" opacity="1" transform="matrix(1,0,0,1,0,0)" fill="#e9efe7" class="wordmark-text-0" data-fill-palette-color="quaternary" id="text-0"></path></svg></g></svg></g></svg></g></svg></g><g></g></svg></g></svg></g></svg></g><defs></defs></svg><rect width="300.31066447748242" height="300.31066447748242" fill="none" stroke="none" visibility="hidden"></rect></g></svg></g></svg>